<?xml version="1.0" encoding="UTF-8" standalone="no"?>
<svg
  xmlns:dc="http://purl.org/dc/elements/1.1/"
  xmlns:cc="http://creativecommons.org/ns#"
  xmlns:rdf="http://www.w3.org/1999/02/22-rdf-syntax-ns#"
  xmlns="http://www.w3.org/2000/svg"
  viewBox="0 0 2104.7251 1488.1875"
  height="1488.1875"
  width="2104.7251"
  xml:space="preserve"
  version="1.1"
  id="svg2"><metadata
     id="metadata8"><rdf:RDF><cc:Work
         rdf:about=""><dc:format>image/svg+xml</dc:format><dc:type
           rdf:resource="http://purl.org/dc/dcmitype/StillImage" /></cc:Work></rdf:RDF></metadata><defs
     id="defs6"><clipPath
       id="clipPath16"
       clipPathUnits="userSpaceOnUse"><path
         id="path18"
         d="m 0,0 1683.78,0 0,1190.551 L 0,1190.551 0,0 Z" /></clipPath></defs><g
     transform="matrix(1.25,0,0,-1.25,0,1488.1875)"
     id="g10"><g
       id="g12"><g
         clip-path="url(#clipPath16)"
         id="g14"><g
           transform="translate(488.1037,803.2124)"
           id="g20"><path
             id="path22"
             style="fill:#ab1741;fill-opacity:1;fill-rule:nonzero;stroke:none"
             d="m 0,0 -375.651,0 c -30.047,-0.02 -54.381,-24.349 -54.401,-54.401 l 0,-197.901 c 0.02,-30.048 24.354,-54.378 54.401,-54.378 l 98.784,0 45.153,-109.194 128.928,127.568 -17.647,17.864 -102.369,-101.266 -26.898,65.028 35.968,0 0,25.117 -161.919,0 c -8.124,0 -15.361,3.235 -20.703,8.556 -5.322,5.367 -8.577,12.584 -8.577,20.705 l 0,197.901 c 0,8.125 3.255,15.361 8.577,20.703 5.342,5.327 12.579,8.577 20.703,8.577 l 375.651,0 c 8.125,0 15.361,-3.25 20.703,-8.577 5.326,-5.342 8.577,-12.578 8.577,-20.703 l 0,-197.901 c 0,-8.121 -3.251,-15.338 -8.577,-20.705 -5.342,-5.321 -12.578,-8.556 -20.703,-8.556 l -80.229,0 0,-25.117 80.229,0 c 30.051,0 54.401,24.33 54.401,54.378 l 0,197.901 C 54.401,-24.349 30.051,-0.02 0,0" /></g><g
           transform="translate(184.7955,608.3462)"
           id="g24"><path
             id="path26"
             style="fill:#231f20;fill-opacity:1;fill-rule:nonzero;stroke:none"
             d="m 0,0 c -12.401,0 -22.537,4.24 -32.002,11.751 -1.3,0.969 -3.093,1.797 -5.876,1.797 -5.225,0 -9.465,-4.082 -9.465,-9.308 0,-3.254 1.64,-6.033 3.926,-7.652 12.736,-9.461 27.426,-14.391 42.924,-14.391 23.995,0 40.833,12.736 40.833,34.129 l 0,0.315 c 0,18.951 -12.422,27.604 -36.573,33.48 -22.044,5.225 -27.269,9.13 -27.269,17.965 l 0,0.315 c 0,7.511 6.861,13.565 18.611,13.565 8.974,0 17.469,-2.936 26.284,-8.654 1.635,-0.989 3.255,-1.482 5.225,-1.482 5.227,0 9.466,4.082 9.466,9.307 0,3.925 -2.132,6.704 -4.397,8.004 -10.294,6.864 -21.888,10.608 -36.263,10.608 -22.673,0 -39.02,-13.544 -39.02,-33.144 l 0,-0.316 c 0,-21.074 13.726,-28.255 38.036,-34.129 21.235,-4.89 25.811,-9.308 25.811,-17.469 l 0,-0.315 C 20.251,5.876 12.401,0 0,0 m 159.649,-16.975 c 5.718,0 10.136,4.416 10.136,9.937 l 0,95.686 c 0,5.561 -4.418,10.115 -10.136,10.115 l -2.107,0 c -4.083,0 -7.023,-1.793 -9.15,-5.205 L 113.61,39.178 79.009,93.381 c -1.975,3.117 -4.911,5.382 -9.307,5.382 l -2.134,0 c -5.697,0 -10.111,-4.554 -10.111,-10.115 l 0,-95.844 c 0,-5.519 4.237,-9.779 9.776,-9.779 5.562,0 9.978,4.26 9.978,9.779 l 0,68.418 27.742,-41.621 c 2.132,-3.275 4.732,-5.225 8.343,-5.225 3.743,0 6.348,1.95 8.476,5.225 l 27.92,41.956 0,-68.595 c 0,-5.363 4.574,-9.937 9.957,-9.937 M 233.098,0 c -12.405,0 -22.516,4.24 -32.002,11.751 -1.3,0.969 -3.097,1.797 -5.875,1.797 -5.226,0 -9.465,-4.082 -9.465,-9.308 0,-3.254 1.614,-6.033 3.925,-7.652 12.715,-9.461 27.426,-14.391 42.924,-14.391 23.994,0 40.813,12.736 40.813,34.129 l 0,0.315 c 0,18.951 -12.401,27.604 -36.576,33.48 -22.024,5.225 -27.25,9.13 -27.25,17.965 l 0,0.315 c 0,7.511 6.845,13.565 18.616,13.565 8.969,0 17.468,-2.936 26.283,-8.654 1.636,-0.989 3.251,-1.482 5.226,-1.482 5.204,0 9.461,4.082 9.461,9.307 0,3.925 -2.128,6.704 -4.413,8.004 -10.274,6.864 -21.871,10.608 -36.243,10.608 -22.693,0 -39.019,-13.544 -39.019,-33.144 l 0,-0.316 c 0,-21.074 13.721,-28.255 38.054,-34.129 21.217,-4.89 25.788,-9.308 25.788,-17.469 l 0,-0.315 C 253.345,5.876 245.499,0 233.098,0 m 319.121,89.064 c -14.197,0 -24.152,-6.566 -31.626,-16.523 -4.95,9.957 -14.554,16.523 -28.056,16.523 -14.396,0 -22.557,-7.829 -28.59,-16.168 l 0,4.437 c 0,6.053 -4.814,10.844 -10.846,10.844 -6.034,0 -10.649,-4.791 -10.649,-10.844 l 0,-74.256 c 0,-6.053 4.793,-10.668 10.649,-10.668 6.032,0 10.846,4.615 10.846,10.668 l 0,43.18 c 0,14.375 8.16,23.267 20.069,23.267 11.892,0 19.008,-8.181 19.008,-22.734 l 0,-43.713 c 0,-6.053 4.792,-10.668 10.826,-10.668 5.875,0 10.668,4.615 10.668,10.668 l 0,43.18 c 0,15.086 8.339,23.267 20.069,23.267 12.07,0 19.008,-8.004 19.008,-22.913 l 0,-43.534 c 0,-6.053 4.792,-10.668 10.826,-10.668 6.053,0 10.668,4.615 10.668,10.668 l 0,50.1 c 0,22.913 -12.421,35.887 -32.87,35.887 m 94.466,-0.71 c -12.246,0 -21.316,-2.128 -30.188,-5.521 -3.214,-1.243 -5.875,-4.615 -5.875,-8.515 0,-4.971 4.103,-8.877 9.069,-8.877 1.066,0 2.129,0.178 3.372,0.513 5.855,2.327 12.619,3.747 20.781,3.747 15.106,0 23.266,-7.119 23.266,-20.428 l 0,-2.305 c -7.256,2.305 -14.746,3.904 -25.197,3.904 -22.933,0 -38.746,-9.958 -38.746,-30.208 l 0,-0.352 c 0,-18.833 15.636,-28.965 33.226,-28.965 14.391,0 24.172,6.073 30.561,13.681 l 0,-3.549 c 0,-4.769 4.26,-9.07 10.45,-9.07 5.875,0 10.49,4.458 10.49,10.313 l 0,46.195 c 0,12.248 -3.194,22.207 -10.135,28.946 -6.545,6.743 -17.036,10.491 -31.074,10.491 m 20.781,-61.302 c 0,-11.888 -10.842,-20.07 -25.041,-20.07 -10.313,0 -18.296,5.165 -18.296,14.214 l 0,0.356 c 0,9.78 8.181,15.635 22.044,15.635 8.517,0 15.772,-1.595 21.293,-3.727 l 0,-6.408 z m 95.193,62.012 c -14.548,0 -23.263,-7.652 -29.299,-16.346 l 0,4.615 c 0,6.053 -4.81,10.844 -10.843,10.844 -6.033,0 -10.649,-4.791 -10.649,-10.844 l 0,-74.256 c 0,-6.053 4.814,-10.668 10.649,-10.668 6.033,0 10.843,4.615 10.843,10.668 l 0,43.18 c 0,14.553 8.717,23.267 21.139,23.267 12.776,0 20.073,-8.359 20.073,-22.913 l 0,-43.534 c 0,-6.053 4.809,-10.668 10.842,-10.668 6.033,0 10.649,4.615 10.649,10.668 l 0,50.1 c 0,21.669 -12.264,35.887 -33.404,35.887 m 94.843,-0.71 c -12.263,0 -21.337,-2.128 -30.208,-5.521 -3.194,-1.243 -5.835,-4.615 -5.835,-8.515 0,-4.971 4.061,-8.877 9.028,-8.877 1.067,0 2.133,0.178 3.392,0.513 5.835,2.327 12.619,3.747 20.78,3.747 15.107,0 23.267,-7.119 23.267,-20.428 l 0,-2.305 c -7.293,2.305 -14.747,3.904 -25.238,3.904 -22.911,0 -38.724,-9.958 -38.724,-30.208 l 0,-0.352 c 0,-18.833 15.655,-28.965 33.205,-28.965 14.391,0 24.172,6.073 30.601,13.681 l 0,-3.549 c 0,-4.769 4.26,-9.07 10.45,-9.07 5.876,0 10.491,4.458 10.491,10.313 l 0,46.195 c 0,12.248 -3.195,22.207 -10.136,28.946 -6.545,6.743 -17.037,10.491 -31.073,10.491 m 20.78,-61.302 c 0,-11.888 -10.843,-20.07 -25.04,-20.07 -10.293,0 -18.297,5.165 -18.297,14.214 l 0,0.356 c 0,9.78 8.161,15.635 22.003,15.635 8.558,0 15.814,-1.595 21.334,-3.727 l 0,-6.408 z m 125.758,61.125 c -5.876,0 -10.649,-4.791 -10.649,-10.666 l 0,-4.438 c -7.296,8.694 -17.076,15.991 -32.889,15.991 -21.847,0 -42.626,-16.346 -42.626,-44.067 l 0,-0.356 c 0,-27.528 20.582,-43.87 42.626,-43.87 15.46,0 25.238,7.096 33.047,17.231 l 0,-7.277 c 0,-18.829 -10.491,-28.766 -29.656,-28.766 -10.842,0 -20.267,2.644 -28.787,7.454 -1.062,0.513 -2.327,0.868 -3.901,0.868 -4.97,0 -9.074,-4.062 -9.074,-8.872 0,-4.102 2.33,-7.099 6.037,-8.52 11.395,-5.521 23.106,-8.359 36.238,-8.359 16.879,0 30.051,4.102 38.527,12.619 7.85,7.809 11.949,19.561 11.949,35.353 l 0,64.831 c 0,6.053 -4.809,10.844 -10.842,10.844 M 993.747,44.82 c 0,-15.261 -12.659,-25.752 -27.564,-25.752 -14.751,0 -26.62,10.491 -26.62,25.752 l 0,0.355 c 0,15.457 11.711,25.77 26.62,25.77 14.905,0 27.564,-10.491 27.564,-25.77 l 0,-0.355 z m 86.993,44.244 c -26.818,0 -45.825,-22.023 -45.825,-48.861 l 0,-0.355 c 0,-28.944 20.941,-48.659 48.15,-48.659 14.554,0 25.197,4.769 33.718,12.422 1.615,1.594 2.875,3.921 2.875,6.585 0,4.968 -3.743,8.694 -8.556,8.694 -2.484,0 -3.902,-0.711 -5.48,-1.95 -6.073,-4.97 -13.173,-8.165 -22.202,-8.165 -13.882,0 -24.724,8.517 -27.014,23.8 l 58.798,0 c 5.52,0 10.136,4.257 10.136,10.29 0,21.693 -14.751,46.199 -44.6,46.199 M 1056.211,46.79 c 1.971,14.553 11.199,24.685 24.33,24.685 14.235,0 22.399,-10.843 23.817,-24.685 l -48.147,0 z m 134.469,41.564 c -9.425,0 -18.652,-8.893 -23.618,-20.603 l 0,9.582 c 0,6.053 -4.814,10.844 -10.847,10.844 -6.033,0 -10.644,-4.791 -10.644,-10.844 l 0,-74.256 c 0,-6.053 4.769,-10.668 10.644,-10.668 6.033,0 10.847,4.813 10.847,10.668 l 0,27.721 c 0,22.202 10.487,33.916 25.75,36.598 4.769,0.885 8.517,4.611 8.517,10.289 0,6.214 -3.905,10.669 -10.649,10.669 m 36.912,-69.641 c -7.256,0 -12.619,-5.323 -12.619,-12.264 l 0,-1.776 c 0,-6.901 5.363,-12.264 12.619,-12.264 7.099,0 12.461,5.363 12.461,12.264 l 0,1.776 c 0,6.941 -5.362,12.264 -12.461,12.264 m 106.75,1.951 c -2.487,0 -4.615,-1.24 -5.839,-2.306 -5.875,-4.968 -12.461,-8.339 -20.978,-8.339 -16.523,0 -28.076,13.309 -28.076,30.007 l 0,0.355 c 0,16.347 11.553,29.854 27.209,29.854 8.517,0 14.552,-3.372 20.073,-8.008 1.417,-1.062 3.707,-2.128 6.389,-2.128 5.479,0 9.937,4.28 9.937,9.78 0,3.55 -1.975,6.211 -3.352,7.454 -8.007,6.917 -18.143,11.731 -32.889,11.731 -28.235,0 -48.857,-22.399 -48.857,-49.038 l 0,-0.355 c 0,-26.635 20.622,-48.482 48.5,-48.482 15.616,0 25.751,5.322 34.115,13.305 1.97,1.6 2.996,3.925 2.996,6.765 0,5.148 -4.062,9.405 -9.228,9.405 m 97.678,-9.76 -46.179,0 50.084,56.847 c 3.194,3.545 4.652,6.211 4.652,10.29 l 0,0.532 c 0,4.971 -4.455,8.536 -10.33,8.536 l -61.794,0 c -4.971,0 -8.912,-3.9 -8.912,-8.891 0,-4.789 3.941,-8.694 8.912,-8.694 l 44.204,0 -49.922,-56.845 c -3.352,-3.549 -4.774,-6.23 -4.774,-10.312 l 0,-0.356 c 0,-4.987 4.458,-8.694 10.492,-8.694 l 63.567,0 c 4.966,0 8.912,3.905 8.912,8.694 0,4.971 -3.946,8.893 -8.912,8.893" /></g></g></g></g></svg>
